<?xml version="1.0" encoding="UTF-8" standalone="no"?>
<!-- Created with Inkscape (http://www.inkscape.org/) -->

<svg
   xmlns:dc="http://purl.org/dc/elements/1.1/"
   xmlns:cc="http://creativecommons.org/ns#"
   xmlns:rdf="http://www.w3.org/1999/02/22-rdf-syntax-ns#"
   xmlns:svg="http://www.w3.org/2000/svg"
   xmlns="http://www.w3.org/2000/svg"
   xmlns:sodipodi="http://sodipodi.sourceforge.net/DTD/sodipodi-0.dtd"
   xmlns:inkscape="http://www.inkscape.org/namespaces/inkscape"
   id="svg2"
   version="1.1"
   inkscape:version="0.91 r13725"
   xml:space="preserve"
   width="412.78494"
   height="512"
   viewBox="0 0 412.78495 512"
   sodipodi:docname="SITENAMEFlairLogoV1.svg"><metadata
     id="metadata8"><rdf:RDF><cc:Work
         rdf:about=""><dc:format>image/svg+xml</dc:format><dc:type
           rdf:resource="http://purl.org/dc/dcmitype/StillImage" /><dc:title></dc:title></cc:Work></rdf:RDF></metadata><defs
     id="defs6" /><sodipodi:namedview
     pagecolor="#ffffff"
     bordercolor="#666666"
     borderopacity="1"
     objecttolerance="10"
     gridtolerance="10"
     guidetolerance="10"
     inkscape:pageopacity="0"
     inkscape:pageshadow="2"
     inkscape:window-width="1920"
     inkscape:window-height="1016"
     id="namedview4"
     showgrid="false"
     fit-margin-top="0"
     fit-margin-left="0"
     fit-margin-right="0"
     fit-margin-bottom="0"
     inkscape:zoom="0.94327901"
     inkscape:cx="28.246353"
     inkscape:cy="219.83737"
     inkscape:window-x="0"
     inkscape:window-y="27"
     inkscape:window-maximized="1"
     inkscape:current-layer="g10" /><g
     id="g10"
     inkscape:groupmode="layer"
     inkscape:label="ink_ext_XXXXXX"
     transform="matrix(1.25,0,0,-1.25,-594.23081,556.95225)"><path
       d="m 475.38465,198.72881 330.22796,0 0,67.91851 -330.22796,0 0,-67.91851 z"
       style="fill:#4068bb;fill-opacity:1;fill-rule:nonzero;stroke:none"
       id="path40"
       inkscape:connector-curvature="0" /><path
       d="m 475.38465,286.20404 330.22796,0 0,67.93341 -330.22796,0 0,-67.93341 z"
       style="fill:#5ca3de;fill-opacity:1;fill-rule:nonzero;stroke:none"
       id="path42"
       inkscape:connector-curvature="0" /><path
       d="m 753.20741,445.5618 -225.47258,0 c -28.9187,0 -52.35018,-24.30883 -52.35018,-54.26077 l 0,-17.6401 330.22643,0 0,17.6401 c 0,29.95194 -23.46204,54.26077 -52.40367,54.26077"
       style="fill:#9adff7;fill-opacity:1;fill-rule:nonzero;stroke:none"
       id="path44"
       inkscape:connector-curvature="0" /><path
       d="m 475.38465,179.59004 0,-17.63704 c 0,-29.95118 23.43148,-54.26382 52.35018,-54.26382 l 141.03213,0 0,-71.727382 69.21687,71.727382 15.22358,0 c 28.94163,0 52.40367,24.31264 52.40367,54.26382 l 0,17.63704 -330.22643,0"
       style="fill:#2d4e9b;fill-opacity:1;fill-rule:nonzero;stroke:none"
       id="path46"
       inkscape:connector-curvature="0" /><path
       d="m 537.33363,107.68918 -9.5988,0 c -28.9187,0 -52.35018,24.31264 -52.35018,54.26382 l 0,17.63704 131.32634,0 -69.37736,-71.90086"
       style="fill:#455ca6;fill-opacity:1;fill-rule:nonzero;stroke:none"
       id="path48"
       inkscape:connector-curvature="0" /><path
       d="m 709.57717,286.20404 -234.19252,0 0,67.93372 299.73341,0 -65.54089,-67.93372"
       style="fill:#73aee2;fill-opacity:1;fill-rule:nonzero;stroke:none"
       id="path50"
       inkscape:connector-curvature="0" /><path
       d="m 625.17493,198.72881 -149.79028,0 0,67.91843 215.33117,0 -65.54089,-67.91843"
       style="fill:#5877c4;fill-opacity:1;fill-rule:nonzero;stroke:none"
       id="path52"
       inkscape:connector-curvature="0" /></g></svg>